Simulation
nRows=23
nColumns=15
endheader
time  TH_x TH_y TH_z SC_y  SC_z  SC_x  AC_y  AC_z  AC_x  GH_y  GH_z  GH_yy  EL_x  PS_y
0.0  0.000000  0.000000  0.000000  -29.130115432744116  2.0419357245118617  0.812488245521332  52.644894069472365  4.479645948213807  -2.831686068592607  142.51411196044683  5.2774547251852555  -93.8206325939361  20.229102190637764  120.000000
0.04016479400749064  0.000000  0.000000  0.000000  -29.134093520244626  2.054749042151596  0.79721868284898  52.633316779094955  4.539876651217889  -2.8121973702153578  141.071483687256  5.162758441134793  -92.52133458714086  20.143409896842595  120.000000
0.08032958801498127  0.000000  0.000000  0.000000  -29.146038072224254  2.0989400396434337  0.7577418192163397  52.59317495235132  4.709479162870173  -2.768094151699022  136.52934005606605  4.8288736624297455  -88.40887829750467  19.894589047628813  120.000000
0.12049438202247191  0.000000  0.000000  0.000000  -29.17376269049757  2.183384882472689  0.7007317379872169  52.50547525353738  4.963182295262541  -2.716036848890773  128.07451656840286  4.327254636965775  -80.6682828984779  19.506788216408133  120.000000
0.16065917602996255  0.000000  0.000000  0.000000  -29.229678889695897  2.309155825330917  0.6220001208600889  52.357046356170464  5.275732550896139  -2.661533238983067  113.9044503130108  3.791156100040438  -67.49180809163684  19.009836543638098  120.000000
0.20082397003745317  0.000000  0.000000  0.000000  -29.32594011705184  2.473751032448483  0.5153080243069377  52.1470949300588  5.625882715952834  -2.6045405536797084  92.24747264045249  3.4851267683744136  -47.09623301881105  18.433665654621535  120.000000
0.24098876404494382  0.000000  0.000000  0.000000  -29.477584818629328  2.6742126129991135  0.3797975970505925  51.879303136590885  5.995536936752435  -2.5395193106145912  66.4510502559641  3.7580879992946197  -22.810816057811447  17.806248564599745  120.000000
0.28115355805243447  0.000000  0.000000  0.000000  -29.698524798574947  2.90757245503036  0.22087388797949084  51.56555713414769  6.371147102807099  -2.4623483931864296  44.97608591733243  4.7402927234026535  -3.073146951286917  17.150575701195333  120.000000
0.3213183520599251  0.000000  0.000000  0.000000  -29.99940021118761  3.1725779612786473  0.049769563742426005  51.2200247897816  6.7439463217237146  -2.3693158046525284  30.629753769139977  6.271897627031229  9.337351231366005  16.485336722581817  120.000000
0.3614831460674157  0.000000  0.000000  0.000000  -30.385996615442092  3.468201748118678  -0.11989816826968985  50.85853732261082  7.109824024042785  -2.258588370500587  21.34913006551483  8.173665961647737  16.515025964812576  15.82434787655679  120.000000
0.40164794007490634  0.000000  0.000000  0.000000  -30.858912843080756  3.7930283520406887  -0.2732053245159224  50.49615465452964  7.466724228493201  -2.1292711099612203  15.055110261913402  10.337106971844186  20.572887646794165  15.178422306371173  120.000000
0.441812734082397  0.000000  0.000000  0.000000  -31.413651851721607  4.144358835594824  -0.3939021468748981  50.14775024928545  7.812071813565463  -1.983207773518943  10.520299702884241  12.699225722768759  22.773575398576526  14.555618950434946  120.000000
0.48197752808988764  0.000000  0.000000  0.000000  -32.04136331329777  4.519431272008137  -0.46470707555546825  49.82728097442652  8.14150254468907  -1.8246296388018441  7.072131388358564  15.21828553129927  23.825627937672994  13.962391736619844  120.000000
0.5221423220973783  0.000000  0.000000  0.000000  -32.731053576090765  4.914928703002389  -0.46792846038027097  49.54543570422695  8.44903690816774  -1.6589066451159478  4.332749921141396  17.8619234872306  24.141748589494924  13.402532936732593  120.000000
0.5623071161048689  0.000000  0.000000  0.000000  -33.471387201266104  5.327385494700855  -0.3860639856327912  49.31061055256305  8.726441149012663  -1.493889858194401  2.0836286654087366  20.601717581094142  23.973486843915616  12.877509428550018  120.000000
0.6024719101123596  0.000000  0.000000  0.000000  -34.25138904729286  5.753161200990437  -0.20421381067397104  49.128808496699676  8.963897111948308  -1.3370909374388904  0.19724833084887147  23.409556988865994  23.478409662626234  12.387208593379787  120.000000
0.6426367041198502  0.000000  0.000000  0.000000  -35.059908211623906  6.1879256041159865  0.08057933933488695  49.0042673861618  9.157709960694186  -1.1891672977312333  -1.3972360827595454  26.25704781125331  22.753753414952865  11.93003173639023  120.000000
0.6828014981273408  0.000000  0.000000  0.000000  -35.885354384578854  6.627704396271984  0.4604070945632978  48.93934924960542  9.310846003781467  -1.0450356979397317  -2.739107203114406  29.11653535390324  21.86013118142513  11.503217821844395  120.000000
0.7229662921348314  0.000000  0.000000  0.000000  -36.71704642190544  7.069094542863455  0.9258085571291547  48.93426994288447  9.4274673432751  -0.8999226389430609  -3.8520446045374386  31.962566914650395  20.836630067711514  11.101757110315598  120.000000
0.7631310861423221  0.000000  0.000000  0.000000  -37.54567208008811  7.509474850113883  1.466415058406781  48.98642991080456  9.51332884593743  -0.7494050328709961  -4.752987186447019  34.772263647911714  19.709247014437864  10.718718207153124  120.000000
0.8032958801498127  0.000000  0.000000  0.000000  -38.36329077368629  7.946877782370937  2.0719396412261593  49.090623865271866  9.575392230322302  -0.5899060657839991  -5.456734294324085  37.525618946155255  18.496404598598424  10.346030538726867  120.000000
0.8434606741573034  0.000000  0.000000  0.000000  -39.163060993135126  8.379842251622186  2.7326458661913153  49.23925745399571  9.621076233961697  -0.4191731374098424  -5.979090224749443  40.20543452969927  17.213074765809743  9.975871480830484  120.000000
0.883625468164794  0.000000  0.000000  0.000000  -39.93889240042925  8.807135236955382  3.4386962776109575  49.42260428636152  9.657931834132631  -0.23602275692697464  -6.3382623929426165  42.79708956980113  15.873942417200842  9.602284849531516  120.000000
